. 
 
http://www.torrenting.com          :     Once & For all ;)


               www . Torrenting . Com 

(((((((((((((= Enjoy No RAR releases =))))))))))))))))))))


...................................NFO:....................................

.








































          
          
              
              
                    
                    
                    
                    

The.Rum.Diary.2011.BRRiP.AC3-5.1.XviD-SiC

Poster:
[img]http://img256.imageshack.us/img256/4848/therumdiarymovieposter2.jpg[/img]

IMDB Link:
http://www.imdb.com/title/tt0376136/

Description:
American journalist Paul Kemp takes on a freelance job in Puerto Rico for a local
newspaper during the 1950s and struggles to find a balance between island culture
and the expatriates who live there. 

MediaInfo:
General
Complete name                    : The.Rum.Diary.2011.BRRiP.AC3-5.1.XviD-SiC.avi
Format                           : AVI
Format/Info                      : Audio Video Interleave
File size                        : 1.50 GiB
Duration                         : 1h 59mn
Overall bit rate                 : 1 786 Kbps

Video
ID                               : 0
Format                           : MPEG-4 Visual
Format profile                   : Advanced Simple@L5
Format settings, BVOP            : Yes
Format settings, QPel            : No
Format settings, GMC             : No warppoints
Format settings, Matrix          : Default (H.263)
Muxing mode                      : Packed bitstream
Codec ID                         : XVID
Codec ID/Hint                    : XviD
Duration                         : 1h 59mn
Bit rate                         : 1 394 Kbps
Width                            : 720 pixels
Height                           : 384 pixels
Display aspect ratio             : 1.875
Frame rate                       : 23.976 fps
Resolution                       : 8 bits
Colorimetry                      : 4:2:0
Scan type                        : Progressive
Bits/(Pixel*Frame)               : 0.210
Stream size                      : 1.17 GiB (78%)
Writing library                  : XviD 64

Audio
ID                               : 1
Format                           : AC-3
Format/Info                      : Audio Coding 3
Format_Settings_ModeExtension    : CM (complete main)
Codec ID                         : 2000
Duration                         : 1h 59mn
Bit rate mode                    : Constant
Bit rate                         : 384 Kbps
Channel(s)                       : 6 channels
Channel positions                : Front: L C R, Side: L R, LFE
Sampling rate                    : 48.0 KHz
Stream size                      : 330 MiB (22%)
Alignment                        : Aligned on interleaves
Interleave, duration             : 64 ms (1.53 video frames)
Interleave, preload duration     : 192 ms
Title                            : 6ch English

Screenshots:
[img]http://img594.imageshack.us/img594/4634/therumdiary2011brripac3.png[/img]
[img]http://img545.imageshack.us/img545/4634/therumdiary2011brripac3.png[/img]
[img]http://img401.imageshack.us/img401/4634/therumdiary2011brripac3.png[/img]
[img]http://img844.imageshack.us/img844/4634/therumdiary2011brripac3.png[/img]
[img]http://img513.imageshack.us/img513/4634/therumdiary2011brripac3.png[/img]

Note: Figured we may as well do a brrip as well. Source wasn't that great but we did our best smoothed sharpened used some contrast ajust and saturation, love SiC...

Source : 720p BluRay-SPARKS Thanks!!!

Enjoy!

Respects to T00NG0D, ELEKTRI4KA, PA, YeFsTe, MrRep and everyone in the struggle...RiP MU